<svg t="1614154451806" class="icon" viewBox="0 0 1024 1024" version="1.1" xmlns="http://www.w3.org/2000/svg" p-id="3052" width="16" height="16"><path d="M238.764926 448.999557a61.4 61.4 0 1 0 119.513264-28.220906 61.4 61.4 0 1 0-119.513264 28.220906Z" p-id="3053" fill="#ffb3a7"></path><path d="M457.762316 448.989146a61.4 61.4 0 1 0 119.513264-28.220906 61.4 61.4 0 1 0-119.513264 28.220906Z" p-id="3054" fill="#ffb3a7"></path><path d="M667.058581 448.969083a61.4 61.4 0 1 0 119.513265-28.220906 61.4 61.4 0 1 0-119.513265 28.220906Z" p-id="3055" fill="#ffb3a7"></path><path d="M919.7 83.6h-814c-22.1 0-40 17.9-40 40v603c0 22.1 17.9 40 40 40h257.1L478 920.2c7.5 10 19.3 16 31.9 16h0.1c12.5 0 24.3-5.8 31.9-15.8l116.8-153.8h261c22.1 0 40-17.9 40-40v-603c0-22.1-17.9-40-40-40z m-40 603H638.8c-12.5 0-24.3 5.9-31.9 15.8l-96.7 127.4-95.5-127.2c-7.6-10.1-19.4-16-32-16h-237v-523h734v523z" p-id="3056" fill="#ffb3a7"></path></svg>