<?xml version="1.0" standalone="no"?><!DOCTYPE svg PUBLIC "-//W3C//DTD SVG 1.1//EN" "http://www.w3.org/Graphics/SVG/1.1/DTD/svg11.dtd"><svg t="1612149903163" class="icon" viewBox="0 0 1024 1024" version="1.1" xmlns="http://www.w3.org/2000/svg" p-id="28932" xmlns:xlink="http://www.w3.org/1999/xlink" width="16" height="16"><defs><style type="text/css"></style></defs><path d="M512 128a128 128 0 0 0-128 128v256a128 128 0 1 0 256 0V256a128 128 0 0 0-128-128z m0-64a192 192 0 0 1 192 192v256a192 192 0 1 1-384 0V256A192 192 0 0 1 512 64z m-32 832v-64a288 288 0 0 1-288-288v-32a32 32 0 0 1 64 0v32a224 224 0 0 0 224 224h64a224 224 0 0 0 224-224v-32a32 32 0 1 1 64 0v32a288 288 0 0 1-288 288v64h64a32 32 0 1 1 0 64H416a32 32 0 1 1 0-64h64z" p-id="28933" fill="#e6e6e6"></path></svg>