<svg t="1614151820672" class="icon" viewBox="0 0 1024 1024" version="1.1" xmlns="http://www.w3.org/2000/svg" p-id="1412" width="16" height="16"><path d="M106 85.5c-22.1 0-40 17.9-40 40v760.6c0 22.1 17.9 40 40 40s40-17.9 40-40V125.5c0-22.1-17.9-40-40-40zM457.3 85.5c-22.1 0-40 17.9-40 40v760.6c0 22.1 17.9 40 40 40s40-17.9 40-40V125.5c0-22.1-17.9-40-40-40zM955.1 661.4c-7.1-12.4-20.3-20-34.6-20h-72c0-0.8 0.1-1.5 0.1-2.3V125.5c0-22.1-17.9-40-40-40s-40 17.9-40 40v513.6c0 0.8 0 1.5 0.1 2.3h-87c-14.3 0-27.5 7.6-34.6 20-7.1 12.4-7.1 27.6 0 40l119.4 206.8c7.1 12.4 20.3 20 34.6 20s27.5-7.6 34.6-20l119.4-206.8c7.2-12.4 7.2-27.7 0-40z m-154 146.8L751 721.4h100.2l-50.1 86.8z" p-id="1413" fill="#ffb3a7"></path></svg>