<svg t="1615945625259" class="icon" viewBox="0 0 1024 1024" version="1.1" xmlns="http://www.w3.org/2000/svg" p-id="2207" width="16" height="16"><path d="M428.131 822.314c6.845-6.843 10.722-16.198 10.722-25.84v-402.29c0-9.695-3.877-18.993-10.722-25.896-6.845-6.843-16.2-10.723-25.896-10.666a36.618 36.618 0 0 0-25.838 10.666c-6.845 6.96-10.723 16.201-10.723 25.896v402.291c0 9.642 3.878 18.997 10.723 25.84a36.424 36.424 0 0 0 25.838 10.722c9.697-0.001 19.052-3.819 25.896-10.723z m219.428 0c6.844-6.843 10.723-16.198 10.723-25.84v-402.29c0-13.005-7.015-25.098-18.31-31.655a36.423 36.423 0 0 0-36.562 0c-11.294 6.557-18.28 18.65-18.28 31.655v402.291c0 9.642 3.85 18.997 10.693 25.84 6.846 6.903 16.2 10.722 25.896 10.722 9.697-0.001 18.994-3.819 25.84-10.723z m339.835-610.996H804.471v-73.123c0-60.461-48.74-109.743-108.83-109.743H329.112c-60.575 0.114-109.656 49.169-109.685 109.743v73.123H36.533C16.371 211.318 0 227.746 0 247.938c0 20.191 16.371 36.505 36.533 36.505h950.86c20.248 0 36.619-16.313 36.619-36.505 0.001-20.25-16.37-36.62-36.618-36.62z m-255.99 0H292.551v-73.123c0-20.078 16.427-36.562 36.561-36.562H695.64c20.078 0 35.764 16.144 35.764 36.562v73.123z" fill="#ffb3a7" p-id="2208"></path><path d="M822.58 362.357c-11.491 6.843-18.396 19.393-17.938 32.739v489.218c0 9.756-3.821 18.994-10.668 25.84-6.843 6.843-16.197 10.723-25.837 10.723H256.075c-20.164 0-36.59-16.313-36.59-36.563V393.67c0.457-13.403-6.388-25.951-17.853-32.797a36.614 36.614 0 0 0-37.389 0c-11.494 6.846-18.396 19.394-17.882 32.797v490.645C146.476 944.891 195.528 994 256.075 994h512.063c60.516-0.058 109.628-49.167 109.628-109.686V395.097c0.513-13.346-6.388-25.896-17.882-32.739a36.711 36.711 0 0 0-37.304-0.001z" fill="#ffb3a7" p-id="2209"></path></svg>