<?xml version="1.0" standalone="no"?><!DOCTYPE svg PUBLIC "-//W3C//DTD SVG 1.1//EN" "http://www.w3.org/Graphics/SVG/1.1/DTD/svg11.dtd"><svg t="1612150005930" class="icon" viewBox="0 0 1024 1024" version="1.1" xmlns="http://www.w3.org/2000/svg" p-id="29727" xmlns:xlink="http://www.w3.org/1999/xlink" width="16" height="16"><defs><style type="text/css"></style></defs><path d="M512 496.64c-115.029333 0-208.725333-93.525333-208.725333-208.725333S396.970667 79.36 512 79.36s208.554667 93.525333 208.554667 208.725333S627.029333 496.64 512 496.64z m0-384c-46.762667 0-90.624 18.261333-123.904 51.370667a174.165333 174.165333 0 0 0-51.370667 123.904c0 46.762667 18.261333 90.624 51.370667 123.904 33.109333 33.109333 77.141333 51.370667 123.904 51.370666s90.965333-18.261333 123.904-51.370666c33.109333-32.938667 51.370667-76.970667 51.370667-123.904s-18.261333-90.965333-51.370667-123.904A173.568 173.568 0 0 0 512 112.64z" fill="#e6e6e6" p-id="29728"></path><path d="M783.189333 911.701333c0.170667-5.12 0.170667-10.410667 0.170667-15.701333 0-55.808-7.850667-109.738667-23.04-160.426667-14.677333-48.298667-35.328-91.477333-61.610667-128.170666-51.029333-71.338667-117.418667-110.762667-186.709333-110.762667s-135.68 39.424-186.709333 110.762667c-26.282667 36.693333-46.933333 79.872-61.610667 128.170666-15.36 50.688-23.04 104.618667-23.04 160.426667 0 5.290667 0 10.410667 0.170667 15.701333h-33.28c-0.170667-5.12-0.170667-10.410667-0.170667-15.701333 0-238.592 136.704-432.64 304.810667-432.64 167.936 0 304.64 194.048 304.64 432.64 0 5.290667 0 10.410667-0.170667 15.701333h-33.450667z" fill="#e6e6e6" p-id="29729"></path><path d="M69.12 727.893333c1.536-103.594667 47.445333-194.56 118.101333-232.96l7.509334-4.096-6.997334-4.608c-34.133333-22.869333-54.613333-61.098667-54.613333-102.229333 0-67.754667 55.125333-122.88 122.88-122.88 9.386667 0 18.944 1.024 28.16 3.242667-0.853333 8.021333-1.194667 15.872-1.194667 23.552 0 2.389333 0 4.608 0.170667 6.826666-8.704-2.730667-17.749333-3.925333-26.965333-3.925333-51.370667 0-93.184 41.813333-93.184 93.184s41.813333 93.184 93.184 93.184c32.426667 0 61.952-16.554667 78.848-43.690667 6.485333 7.850667 13.482667 15.36 20.992 22.186667-8.704 12.117333-19.285333 22.357333-31.573334 30.378667l-7.168 4.778666 7.338667 4.096c6.656 3.584 13.312 7.850667 19.797333 12.629334-7.68 6.485333-15.189333 13.482667-22.357333 20.650666-20.650667-13.994667-43.349333-21.162667-66.048-21.162666-39.936 0-78.165333 22.186667-107.690667 62.293333-15.36 20.650667-27.477333 45.056-35.84 72.362667-8.533333 27.306667-12.970667 56.32-13.482666 86.016H69.12zM925.013333 727.722667c-0.512-29.866667-4.949333-58.709333-13.482666-86.016-8.533333-27.477333-20.650667-51.882667-36.010667-72.533334-29.525333-40.106667-67.754667-62.122667-107.690667-62.122666-23.04 0-45.226667 7.168-66.048 21.333333-7.168-7.168-14.677333-13.994667-22.357333-20.650667 6.485333-4.778667 13.141333-9.045333 19.797333-12.629333l7.509334-4.096-6.997334-4.778667a120.183467 120.183467 0 0 1-31.573333-30.72c7.509333-6.997333 14.506667-14.506667 20.992-22.186666A92.7232 92.7232 0 0 0 768 477.013333c51.370667 0 93.184-41.813333 93.184-93.184a93.303467 93.303467 0 0 0-120.149333-89.258666c0-2.218667 0.170667-4.608 0.170666-6.826667 0-7.68-0.341333-15.701333-1.194666-23.552 9.386667-2.218667 18.773333-3.242667 28.16-3.242667 67.754667 0 122.88 55.125333 122.88 122.88 0 41.130667-20.48 79.36-54.613334 102.229334l-6.997333 4.778666 7.168 4.096c70.656 38.4 116.736 129.365333 118.101333 232.96H925.013333z" fill="#e6e6e6" p-id="29730"></path></svg>